Coordinates
version=1
nRows=16
nColumns=40
inDegrees=yes

Units are S.I. units (second, meters, Newtons, ...)
Angles are in degrees.

endheader
time	pelvis_tilt	pelvis_list	pelvis_rotation	pelvis_tx	pelvis_ty	pelvis_tz	hip_flexion_r	hip_adduction_r	hip_rotation_r	knee_angle_r	knee_angle_r_beta	ankle_angle_r	subtalar_angle_r	mtp_angle_r	hip_flexion_l	hip_adduction_l	hip_rotation_l	knee_angle_l	knee_angle_l_beta	ankle_angle_l	subtalar_angle_l	mtp_angle_l	lumbar_extension	lumbar_bending	lumbar_rotation	arm_flex_r	arm_add_r	arm_rot_r	elbow_flex_r	pro_sup_r	wrist_flex_r	wrist_dev_r	arm_flex_l	arm_add_l	arm_rot_l	elbow_flex_l	pro_sup_l	wrist_flex_l	wrist_dev_l
      5.36750000	     -4.11250351	     -2.69055218	     -3.91847765	      1.02383074	      0.93207096	      0.43192607	     32.14380740	     -7.61893645	     -7.49210525	     56.55355000	     56.55355000	      4.85340477	    -11.60991185	     -0.24608262	     11.12846022	     -2.40725411	    -12.13766449	     18.36842759	     18.36842759	     13.46120211	     -9.24705149	     -4.63253787	     -9.60825219	      4.60634166	      1.17593543	     -0.33388477	    -12.77244520	     -3.81335626	     53.96446239	     46.03929122	      0.00000000	      0.00000000	     17.69282757	    -15.84232777	      4.11998749	     40.41196667	     46.58050943	      0.00000000	      0.00000000
      5.37900000	     -4.09048114	     -2.67911793	     -4.36297491	      1.02309964	      0.93205795	      0.43229070	     32.86497584	     -7.24821792	     -7.42838835	     53.73132894	     53.73132894	      4.64126497	    -11.19613923	     -0.00122035	     10.11601972	     -2.29625159	    -12.38591412	     17.68944659	     17.68944659	     13.44665423	     -9.43606868	     -5.27251963	     -9.71396607	      4.62975217	      0.71604874	     -0.17332510	    -11.94142210	     -5.64773990	     46.81068637	     46.33996805	      0.00000000	      0.00000000	     18.43422400	    -16.95242720	      3.64519369	     42.55387040	     46.62577662	      0.00000000	      0.00000000
      5.39050000	     -3.95462662	     -2.70256843	     -4.80507736	      1.02247218	      0.93211051	      0.43276168	     33.29016392	     -6.80465995	     -7.42288415	     50.61162215	     50.61162215	      4.38572040	    -10.66643649	      0.43986947	      8.95376346	     -2.22265827	    -12.74145923	     17.01235170	     17.01235170	     13.70716997	     -9.32213972	     -5.38107960	    -10.07142386	      4.71811968	      1.16458415	     -1.96533302	    -12.17016337	     -5.96696860	     44.16287922	     46.42877901	      0.00000000	      0.00000000	     19.92282793	    -17.40549535	      3.20364198	     44.19308650	     46.69249877	      0.00000000	      0.00000000
      5.40200000	     -3.94667200	     -2.71752003	     -5.16779885	      1.02189734	      0.93187462	      0.43328989	     33.67857134	     -6.39099522	     -7.59133059	     47.22589002	     47.22589002	      3.90653784	     -9.94304316	      0.51784920	      7.92557547	     -2.14465719	    -13.07357577	     16.29216667	     16.29216667	     13.72484776	     -9.21638366	     -6.07080411	    -10.16845216	      4.76857731	      0.55684126	     -1.61818976	    -11.56108094	     -8.17153168	     37.49082827	     46.73812910	      0.00000000	      0.00000000	     20.23927926	    -18.54923277	      2.31239025	     46.99151913	     46.77793782	      0.00000000	      0.00000000
      5.41350000	     -3.85722589	     -2.70340196	     -5.51645984	      1.02146392	      0.93163099	      0.43386010	     33.83321254	     -6.01445269	     -7.85815254	     43.66061210	     43.66061210	      3.46534771	     -8.88262176	      0.96388493	      6.77335974	     -2.01912017	    -13.46003494	     15.54322213	     15.54322213	     13.99518622	     -8.87152422	     -6.21845658	    -10.42064994	      4.81786055	      0.94617084	     -3.40958195	    -11.82779772	     -8.57716694	     35.32525328	     46.81805013	      0.00000000	      0.00000000	     21.62824875	    -18.94360351	      1.81330653	     48.67962051	     46.84884667	      0.00000000	      0.00000000
      5.42500000	     -3.85816140	     -2.70903427	     -5.79682167	      1.02117171	      0.93113207	      0.43448910	     33.86442348	     -5.61667613	     -8.31908908	     39.83197958	     39.83197958	      2.72178190	     -7.71601547	      0.79685602	      5.70546342	     -1.93535535	    -13.92120055	     14.76028758	     14.76028758	     14.05498814	     -8.41952664	     -7.00376820	    -10.49108157	      4.87560685	      0.35909742	     -3.37470877	    -11.60698836	    -10.80419158	     30.04916511	     47.11256721	      0.00000000	      0.00000000	     21.73140810	    -19.97759918	      0.77059358	     51.84713448	     46.95485061	      0.00000000	      0.00000000
      5.43650000	     -3.88281163	     -2.75417824	     -6.01112608	      1.02102146	      0.93049963	      0.43513484	     33.73311512	     -5.17740470	     -8.93980591	     35.86817733	     35.86817733	      2.15621514	     -6.24846077	      1.48250984	      4.68087113	     -1.87148164	    -14.15822255	     14.04311053	     14.04311053	     14.37538546	     -8.04922930	     -7.11013496	    -10.52601025	      5.01673323	      0.45251728	     -5.18821781	    -11.95622408	    -11.05684556	     28.83552458	     47.15914346	      0.00000000	      0.00000000	     22.89341079	    -20.39566054	      0.37147922	     53.09084185	     47.01140753	      0.00000000	      0.00000000
      5.44800000	     -3.77391267	     -2.62354604	     -6.24405841	      1.02126977	      0.92976578	      0.43582483	     33.37771288	     -4.93277444	     -9.63048671	     31.95473591	     31.95473591	      1.51758439	     -4.37942772	      1.61316320	      3.35793115	     -1.58235044	    -14.69521390	     13.03147409	     13.03147409	     14.42901958	     -7.34573005	     -7.96160938	    -10.68703867	      4.88829480	      0.10713211	     -5.58441299	    -11.90421147	    -13.75978461	     24.88379698	     47.46935097	      0.00000000	      0.00000000	     22.85798575	    -21.19351812	     -1.03916820	     56.98654518	     47.15668999	      0.00000000	      0.00000000
      5.45950000	     -3.76379464	     -2.60978819	     -6.37376853	      1.02165902	      0.92876299	      0.43657212	     32.92404883	     -4.51664084	    -10.40764652	     27.99349074	     27.99349074	      1.02392714	     -2.61597711	      2.50338236	      2.26591624	     -1.43998600	    -14.91785253	     12.30456209	     12.30456209	     14.77820117	     -6.88818685	     -8.10800766	    -10.65298946	      4.96410812	      0.19661551	     -7.41989718	    -12.26158071	    -13.99906938	     23.94076622	     47.50885355	      0.00000000	      0.00000000	     23.95441131	    -21.52504694	     -1.38082386	     58.26398239	     47.20826830	      0.00000000	      0.00000000
      5.47100000	     -3.57290005	     -2.42873693	     -6.52300850	      1.02249170	      0.92768257	      0.43737994	     32.31094075	     -4.35811806	    -11.40613659	     24.46596462	     24.46596462	      0.92640323	     -0.19006089	      3.63947420	      0.82376597	     -1.07163485	    -15.37114052	     11.29809957	     11.29809957	     15.06198203	     -6.00142617	     -8.48393522	    -10.81994536	      4.75844549	      0.50346968	     -9.24650910	    -12.51448515	    -14.57077158	     22.79811029	     47.58286155	      0.00000000	      0.00000000	     24.80210042	    -21.74473134	     -1.85259375	     60.82831147	     47.28572461	      0.00000000	      0.00000000
      5.48250000	     -3.45521998	     -2.31219209	     -6.59022696	      1.02353107	      0.92628890	      0.43827244	     31.71091253	     -4.09463900	    -12.36256728	     21.25307014	     21.25307014	      1.10708288	      1.97540652	      5.37154711	     -0.44571751	     -0.80511122	    -15.64658032	     10.49850257	     10.49850257	     15.38086707	     -5.31582791	     -8.86510581	    -10.84270399	      4.65076997	      0.45625234	    -10.90501475	    -12.75189565	    -15.30657039	     21.98033776	     47.65966748	      0.00000000	      0.00000000	     25.22548367	    -22.16734527	     -2.41532534	     63.59493293	     47.37130953	      0.00000000	      0.00000000
      5.49400000	     -3.38583036	     -2.25876772	     -6.59525508	      1.02470226	      0.92465922	      0.43932148	     31.22189092	     -3.77299964	    -13.25288067	     18.64549705	     18.64549705	      1.94325187	      3.79680421	      8.81970840	     -1.53367736	     -0.65854678	    -15.76706362	      9.97594159	      9.97594159	     15.78698093	     -4.86331832	     -9.15756738	    -10.80072559	      4.60065514	     -0.03749135	    -12.29341236	    -12.95974208	    -16.78664196	     21.54622937	     47.77190529	      0.00000000	      0.00000000	     25.01446050	    -22.86040140	     -3.45704443	     66.96556883	     47.49993618	      0.00000000	      0.00000000
      5.50550000	     -3.29576073	     -2.18681963	     -6.55032584	      1.02611315	      0.92285367	      0.44044222	     30.62718514	     -3.44776067	    -13.94701988	     16.30836860	     16.30836860	      2.03878687	      5.06907913	      9.66276693	     -2.60115280	     -0.50753250	    -15.75793525	      9.56088985	      9.56088985	     16.27997008	     -4.50741238	     -9.26477128	    -10.68256890	      4.53440945	      0.11275329	    -14.07375676	    -13.16915079	    -16.98718656	     20.93501067	     47.79509201	      0.00000000	      0.00000000	     25.91129129	    -22.85009903	     -3.72614494	     68.46090521	     47.54996920	      0.00000000	      0.00000000
      5.51700000	     -3.21813249	     -2.11295155	     -6.47381748	      1.02764269	      0.92092898	      0.44170145	     30.23928671	     -3.23922121	    -14.69453579	     14.90116010	     14.90116010	      2.95432558	      6.32331638	     12.04308321	     -3.54445405	     -0.42933931	    -15.89735021	      9.41485804	      9.41485804	     17.07167843	     -3.81862731	     -8.88480769	    -10.62171064	      4.43738323	      0.01584877	    -15.97844061	    -13.23994462	    -17.93478809	     21.61944580	     47.78382870	      0.00000000	      0.00000000	     26.02027275	    -23.15606169	     -4.39182093	     71.56341158	     47.65862130	      0.00000000	      0.00000000
      5.52850000	     -3.17312015	     -2.08554836	     -6.32053719	      1.02926916	      0.91892733	      0.44301832	     29.78075197	     -2.97589239	    -15.16039857	     13.74166984	     13.74166984	      3.13481431	      6.95394288	     12.22428141	     -4.37243862	     -0.42792854	    -15.75292190	      9.39134576	      9.39134576	     17.64072851	     -3.61018045	     -8.91804031	    -10.43130512	      4.41297691	      0.17283200	    -17.62136368	    -13.32156468	    -18.04905253	     21.21655751	     47.78767998	      0.00000000	      0.00000000	     26.78281189	    -23.00077628	     -4.55799587	     73.11282914	     47.70251416	      0.00000000	      0.00000000
      5.54000000	     -3.13652941	     -2.11531968	     -6.12280380	      1.03096608	      0.91693369	      0.44448719	     29.42537549	     -2.73223660	    -15.46826869	     13.23409539	     13.23409539	      3.20880130	      7.24154360	     12.05311275	     -5.09060368	     -0.55414154	    -15.59468562	      9.60589723	      9.60589723	     18.31575488	     -3.38879276	     -8.80609863	    -10.24133115	      4.40604773	      0.33413493	    -19.26711119	    -13.31656597	    -18.20415650	     21.15328916	     47.77776472	      0.00000000	      0.00000000	     27.33337569	    -22.84756588	     -4.72513067	     75.05313509	     47.75406805	      0.00000000	      0.00000000
